<?xml version="1.0" encoding="utf-8"?>
<svg viewBox="0 0 372 232" width="350px" height="218.75px" xmlns="http://www.w3.org/2000/svg" xmlns:bx="https://boxy-svg.com">
  <defs>
    <bx:grid x="0" y="0" width="10" height="10"/>
    <linearGradient gradientUnits="userSpaceOnUse" x1="265" y1="40" x2="265" y2="250" id="gradient-0" spreadMethod="repeat" gradientTransform="matrix(0.668995, -0.743266, 0.857143, 0.761905, -111.569522, 186.48936)">
      <stop offset="0" style="stop-color: rgb(196, 13, 35);"/>
      <stop offset="1" style="stop-color: rgb(204, 57, 75);"/>
    </linearGradient>
    <radialGradient gradientUnits="userSpaceOnUse" cx="380" cy="100" r="50" id="gradient-2" gradientTransform="matrix(2.340189, 0.025907, -0.023492, 2.121958, -506.922441, -122.040574)">
      <stop offset="0" style="stop-color: rgba(100, 11, 18, 1)"/>
      <stop offset="1" style="stop-color: rgb(38, 5, 10);"/>
    </radialGradient>
    <radialGradient gradientUnits="userSpaceOnUse" cx="410" cy="70.089" r="20" id="gradient-4" gradientTransform="matrix(2.900144, -0.356529, 0.601799, 4.895262, -821.238826, -126.838054)">
      <stop offset="0" style="stop-color: rgba(100, 11, 18, 1)"/>
      <stop offset="1" style="stop-color: rgb(40, 4, 9);"/>
    </radialGradient>
    <radialGradient gradientUnits="userSpaceOnUse" cx="150" cy="100" r="50" id="gradient-5" gradientTransform="matrix(1.158526, 1.640422, -2.433124, 1.718362, 219.533463, -317.899469)">
      <stop offset="0" style="stop-color: rgba(100, 11, 18, 1)"/>
      <stop offset="1" style="stop-color: rgb(60, 8, 16);"/>
    </radialGradient>
    <radialGradient gradientUnits="userSpaceOnUse" cx="120" cy="69.911" r="20" id="gradient-3" gradientTransform="matrix(0.610759, 2.903578, -3.683733, 0.774863, 304.242294, -332.689755)">
      <stop offset="0" style="stop-color: rgba(100, 11, 18, 1)"/>
      <stop offset="1" style="stop-color: rgb(59, 6, 14);"/>
    </radialGradient>
    <radialGradient gradientUnits="userSpaceOnUse" cx="166.105" cy="142.188" r="165" id="gradient-1" gradientTransform="matrix(1.433356, 1.0392, -0.586974, 0.809606, 35.372567, -157.732722)">
      <stop offset="0" style="stop-color: rgb(100, 11, 18);"/>
      <stop offset="1" style="stop-color: rgb(92, 4, 17);"/>
    </radialGradient>
    <linearGradient gradientUnits="userSpaceOnUse" x1="265" y1="130" x2="265" y2="270.253" id="gradient-6" gradientTransform="matrix(0.743303, -0.668955, -0.100572, 0.463856, 170.204631, 306.971751)" spreadMethod="reflect">
      <stop offset="0" style="stop-color: rgb(218, 218, 218);"/>
      <stop offset="1" style="stop-color: rgb(143, 143, 143);"/>
    </linearGradient>
    <linearGradient gradientUnits="userSpaceOnUse" x1="265" y1="90" x2="265" y2="320" id="gradient-7" gradientTransform="matrix(-0.769219, -0.638985, 0.52174, -0.631181, 426.886419, 476.137175)" spreadMethod="repeat">
      <stop offset="0" style="stop-color: rgb(69, 69, 69);"/>
      <stop offset="1" style="stop-color: rgb(44, 40, 39);"/>
    </linearGradient>
    <radialGradient gradientUnits="userSpaceOnUse" cx="265.394" cy="124.373" r="4.606" id="gradient-8">
      <stop offset="0" style="stop-color: rgb(36, 29, 29);"/>
      <stop offset="1" style="stop-color: rgb(41, 41, 41);"/>
    </radialGradient>
  </defs>
  <g transform="matrix(1, 0, 0, 1, -79, -39.252991)">
    <path style="stroke: rgb(0, 0, 0); fill: url(#gradient-7);" d="M 200 320 L 330 310 L 330 100 L 200 90 L 200 160 C 235.049 160 256.954 197.941 239.43 228.294 C 231.329 242.324 216.384 250.993 200.183 251.058 L 200 320 Z" transform="matrix(0, -1, 1, 0, 60.00000089406967, 470.00000700354576)"/>
    <path style="stroke: rgb(0, 0, 0); fill: url(#gradient-6); paint-order: fill;" d="M 450 270 L 450 260 L 380 260 L 380 130 L 150 130 L 150 260 L 80 260 L 80 270 L 160 270 C 160 189.001 218.957 124.738 300 150 C 360 168.703 370.531 232.571 370.44 270.253 L 450 270 Z" transform="matrix(1, 0, 0, 1, -1.4210854715202004e-14, 0)"/>
    <path style="stroke: rgb(0, 0, 0); fill: url(#gradient-1);" d="M 430 260 L 430 250 L 390 250 L 390 120 L 140 120 L 140 250 L 100 250 L 100 260 L 150 260 C 150 171.192 223.582 125.113 284.598 136.244 C 360 150 380.78 218.873 380.73 260.139 L 430 260 Z" transform="matrix(1, 0, 0, 1, -1.4210854715202004e-14, 0)"/>
    <g transform="matrix(1, 0, 0, 1, -1.4210854715202004e-14, 0)">
      <path style="stroke: rgb(0, 0, 0); fill-rule: nonzero; paint-order: fill; fill: url(#gradient-0);" d="M 440 250 L 440 150 L 430 150 L 430 140 L 440 140 L 440 90 L 430 90 L 430 80 L 440 80 L 440 70 C 440 70 440 60 430 50 C 420 40 410 40 410 40 L 400 40 L 400 50 L 390 50 L 390 40 L 340 40 L 340 50 L 330 50 L 330 40 L 200 40 L 200 50 L 190 50 L 190 40 L 140 40 L 140 50 L 130 50 L 130 40 L 120 40 C 116.634 40.025 110 40 100 50 C 90 60 90 66.666 90 70 L 90 80 L 100 80 L 100 90 L 90 90 L 90 140 L 100 140 L 100 150 L 90 150 L 90 250 L 140 250 C 140 153.694 244.254 93.503 327.657 141.656 C 366.358 164 390.202 205.292 390.209 249.981 L 440 250 Z"/>
    </g>
    <path style="stroke: rgb(0, 0, 0); paint-order: fill; fill: url(#gradient-3);" d="M 130 50 C 129.685 66.613 116.616 80 100 80 L 100.02 89.822 C 122.039 89.822 139.913 72.019 140 50 L 130 50 Z" transform="matrix(1, 0, 0, 1, -1.4210854715202004e-14, 0)"/>
    <path style="stroke: rgb(0, 0, 0); fill: url(#gradient-5);" d="M 190 50 C 189.657 99.592 149.593 140 100 140 L 100 150 C 155.137 150 199.886 105.137 200 50 L 190 50 Z" transform="matrix(1, 0, 0, 1, -1.4210854715202004e-14, 0)"/>
    <path style="stroke: rgb(0, 0, 0); fill: url(#gradient-4);" d="M 420 90 C 419.685 73.387 406.616 60 390 60 L 390.02 50.178 C 412.039 50.178 429.913 67.981 430 90 L 420 90 Z" transform="matrix(-1, 0, 0, -1, 820.0000122189522, 140.17799586322892)"/>
    <path style="stroke: rgb(0, 0, 0); fill: url(#gradient-2);" d="M 420 150 C 419.657 100.408 379.593 60 330 60 L 330 50 C 385.137 50 429.886 94.863 430 150 L 420 150 Z" transform="matrix(-1, 0, 0, -1, 760.0000113248825, 200.0000029802322)"/>
    <path style="stroke: rgb(0, 0, 0); fill: rgb(100, 11, 18);" d="M 260.543 131.384 C 268.254 131.384 272.964 122.971 269.108 116.293 C 267.255 113.083 264.193 111.12 260.489 111.252" transform="matrix(0, -1, 1, 0, 143.47117828534803, 386.1007137611614)"/>
    <ellipse style="stroke: rgb(0, 0, 0); fill: url(#gradient-8);" cx="264.9" cy="124.373" rx="4.606" ry="4.373" transform="matrix(1, 0, 0, 1, -1.4210854715202004e-14, 0)"/>
  </g>
</svg>